<?xml version="1.0" encoding="UTF-8"?>
<svg xmlns="http://www.w3.org/2000/svg" xmlns:xlink="http://www.w3.org/1999/xlink" width="50pt" height="50pt" viewBox="0 0 50 50" version="1.1">
<defs>
<linearGradient id="linear0" gradientUnits="userSpaceOnUse" x1="32" y1="63.219" x2="32" y2="2.026" gradientTransform="matrix(0.78125,0,0,0.78125,0,0)">
<stop offset="0" style="stop-color:rgb(0%,42.745098%,94.117647%);stop-opacity:1;"/>
<stop offset="1" style="stop-color:rgb(0%,90.588235%,94.117647%);stop-opacity:1;"/>
</linearGradient>
<linearGradient id="linear1" gradientUnits="userSpaceOnUse" x1="32" y1="63.219" x2="32" y2="2.026" gradientTransform="matrix(0.78125,0,0,0.78125,0,0)">
<stop offset="0" style="stop-color:rgb(0%,42.745098%,94.117647%);stop-opacity:1;"/>
<stop offset="1" style="stop-color:rgb(0%,90.588235%,94.117647%);stop-opacity:1;"/>
</linearGradient>
<linearGradient id="linear2" gradientUnits="userSpaceOnUse" x1="32" y1="63.219" x2="32" y2="2.026" gradientTransform="matrix(0.78125,0,0,0.78125,0,0)">
<stop offset="0" style="stop-color:rgb(0%,42.745098%,94.117647%);stop-opacity:1;"/>
<stop offset="1" style="stop-color:rgb(0%,90.588235%,94.117647%);stop-opacity:1;"/>
</linearGradient>
<linearGradient id="linear3" gradientUnits="userSpaceOnUse" x1="49" y1="63.219" x2="49" y2="2.026" gradientTransform="matrix(0.78125,0,0,0.78125,0,0)">
<stop offset="0" style="stop-color:rgb(0%,42.745098%,94.117647%);stop-opacity:1;"/>
<stop offset="1" style="stop-color:rgb(0%,90.588235%,94.117647%);stop-opacity:1;"/>
</linearGradient>
<linearGradient id="linear4" gradientUnits="userSpaceOnUse" x1="49" y1="63.219" x2="49" y2="2.026" gradientTransform="matrix(0.78125,0,0,0.78125,0,0)">
<stop offset="0" style="stop-color:rgb(0%,42.745098%,94.117647%);stop-opacity:1;"/>
<stop offset="1" style="stop-color:rgb(0%,90.588235%,94.117647%);stop-opacity:1;"/>
</linearGradient>
<linearGradient id="linear5" gradientUnits="userSpaceOnUse" x1="49" y1="63.219" x2="49" y2="2.026" gradientTransform="matrix(0.78125,0,0,0.78125,0,0)">
<stop offset="0" style="stop-color:rgb(0%,42.745098%,94.117647%);stop-opacity:1;"/>
<stop offset="1" style="stop-color:rgb(0%,90.588235%,94.117647%);stop-opacity:1;"/>
</linearGradient>
<linearGradient id="linear6" gradientUnits="userSpaceOnUse" x1="15" y1="63.219" x2="15" y2="2.026" gradientTransform="matrix(0.78125,0,0,0.78125,0,0)">
<stop offset="0" style="stop-color:rgb(0%,42.745098%,94.117647%);stop-opacity:1;"/>
<stop offset="1" style="stop-color:rgb(0%,90.588235%,94.117647%);stop-opacity:1;"/>
</linearGradient>
<linearGradient id="linear7" gradientUnits="userSpaceOnUse" x1="15" y1="63.219" x2="15" y2="2.026" gradientTransform="matrix(0.78125,0,0,0.78125,0,0)">
<stop offset="0" style="stop-color:rgb(0%,42.745098%,94.117647%);stop-opacity:1;"/>
<stop offset="1" style="stop-color:rgb(0%,90.588235%,94.117647%);stop-opacity:1;"/>
</linearGradient>
<linearGradient id="linear8" gradientUnits="userSpaceOnUse" x1="15" y1="63.219" x2="15" y2="2.026" gradientTransform="matrix(0.78125,0,0,0.78125,0,0)">
<stop offset="0" style="stop-color:rgb(0%,42.745098%,94.117647%);stop-opacity:1;"/>
<stop offset="1" style="stop-color:rgb(0%,90.588235%,94.117647%);stop-opacity:1;"/>
</linearGradient>
<linearGradient id="linear9" gradientUnits="userSpaceOnUse" x1="43.5" y1="63.219" x2="43.5" y2="2.026" gradientTransform="matrix(0.78125,0,0,0.78125,0,0)">
<stop offset="0" style="stop-color:rgb(0%,42.745098%,94.117647%);stop-opacity:1;"/>
<stop offset="1" style="stop-color:rgb(0%,90.588235%,94.117647%);stop-opacity:1;"/>
</linearGradient>
<linearGradient id="linear10" gradientUnits="userSpaceOnUse" x1="51" y1="63.219" x2="51" y2="2.026" gradientTransform="matrix(0.78125,0,0,0.78125,0,0)">
<stop offset="0" style="stop-color:rgb(0%,42.745098%,94.117647%);stop-opacity:1;"/>
<stop offset="1" style="stop-color:rgb(0%,90.588235%,94.117647%);stop-opacity:1;"/>
</linearGradient>
<linearGradient id="linear11" gradientUnits="userSpaceOnUse" x1="51" y1="63.219" x2="51" y2="2.026" gradientTransform="matrix(0.78125,0,0,0.78125,0,0)">
<stop offset="0" style="stop-color:rgb(0%,42.745098%,94.117647%);stop-opacity:1;"/>
<stop offset="1" style="stop-color:rgb(0%,90.588235%,94.117647%);stop-opacity:1;"/>
</linearGradient>
<linearGradient id="linear12" gradientUnits="userSpaceOnUse" x1="13" y1="63.219" x2="13" y2="2.026" gradientTransform="matrix(0.78125,0,0,0.78125,0,0)">
<stop offset="0" style="stop-color:rgb(0%,42.745098%,94.117647%);stop-opacity:1;"/>
<stop offset="1" style="stop-color:rgb(0%,90.588235%,94.117647%);stop-opacity:1;"/>
</linearGradient>
<linearGradient id="linear13" gradientUnits="userSpaceOnUse" x1="13" y1="63.219" x2="13" y2="2.026" gradientTransform="matrix(0.78125,0,0,0.78125,0,0)">
<stop offset="0" style="stop-color:rgb(0%,42.745098%,94.117647%);stop-opacity:1;"/>
<stop offset="1" style="stop-color:rgb(0%,90.588235%,94.117647%);stop-opacity:1;"/>
</linearGradient>
<linearGradient id="linear14" gradientUnits="userSpaceOnUse" x1="20.5" y1="63.219" x2="20.5" y2="2.026" gradientTransform="matrix(0.78125,0,0,0.78125,0,0)">
<stop offset="0" style="stop-color:rgb(0%,42.745098%,94.117647%);stop-opacity:1;"/>
<stop offset="1" style="stop-color:rgb(0%,90.588235%,94.117647%);stop-opacity:1;"/>
</linearGradient>
<linearGradient id="linear15" gradientUnits="userSpaceOnUse" x1="32" y1="63.219" x2="32" y2="2.026" gradientTransform="matrix(0.78125,0,0,0.78125,0,0)">
<stop offset="0" style="stop-color:rgb(0%,42.745098%,94.117647%);stop-opacity:1;"/>
<stop offset="1" style="stop-color:rgb(0%,90.588235%,94.117647%);stop-opacity:1;"/>
</linearGradient>
</defs>
<g id="surface1">
<path style=" stroke:none;fill-rule:nonzero;fill:url(#linear0);" d="M 44.53125 31.25 L 5.46875 31.25 C 5.039062 31.25 4.6875 30.898438 4.6875 30.46875 L 4.6875 5.46875 C 4.6875 5.039062 5.039062 4.6875 5.46875 4.6875 L 44.53125 4.6875 C 44.960938 4.6875 45.3125 5.039062 45.3125 5.46875 L 45.3125 30.46875 C 45.3125 30.898438 44.960938 31.25 44.53125 31.25 Z M 6.25 29.6875 L 43.75 29.6875 L 43.75 6.25 L 6.25 6.25 Z M 6.25 29.6875 "/>
<path style=" stroke:none;fill-rule:nonzero;fill:url(#linear1);" d="M 26.5625 25.78125 L 23.4375 25.78125 C 23.007812 25.78125 22.65625 25.429688 22.65625 25 L 22.65625 23.628906 L 21.683594 24.597656 C 21.378906 24.902344 20.886719 24.902344 20.582031 24.597656 L 18.371094 22.386719 C 18.066406 22.082031 18.066406 21.589844 18.371094 21.285156 L 19.339844 20.3125 L 17.96875 20.3125 C 17.539062 20.3125 17.1875 19.960938 17.1875 19.53125 L 17.1875 16.40625 C 17.1875 15.976562 17.539062 15.625 17.96875 15.625 L 19.339844 15.625 L 18.371094 14.652344 C 18.066406 14.347656 18.066406 13.855469 18.371094 13.550781 L 20.582031 11.339844 C 20.886719 11.035156 21.378906 11.035156 21.683594 11.339844 L 22.65625 12.308594 L 22.65625 10.9375 C 22.65625 10.507812 23.007812 10.15625 23.4375 10.15625 L 26.5625 10.15625 C 26.992188 10.15625 27.34375 10.507812 27.34375 10.9375 L 27.34375 12.308594 L 28.316406 11.339844 C 28.621094 11.035156 29.113281 11.035156 29.417969 11.339844 L 31.628906 13.550781 C 31.933594 13.855469 31.933594 14.347656 31.628906 14.652344 L 30.660156 15.625 L 32.03125 15.625 C 32.460938 15.625 32.8125 15.976562 32.8125 16.40625 L 32.8125 19.53125 C 32.8125 19.960938 32.460938 20.3125 32.03125 20.3125 L 30.660156 20.3125 L 31.628906 21.285156 C 31.933594 21.589844 31.933594 22.082031 31.628906 22.386719 L 29.417969 24.597656 C 29.113281 24.902344 28.621094 24.902344 28.316406 24.597656 L 27.34375 23.628906 L 27.34375 25 C 27.34375 25.429688 26.992188 25.78125 26.5625 25.78125 Z M 24.21875 24.21875 L 25.78125 24.21875 L 25.78125 22.382812 C 25.78125 22.039062 26.007812 21.734375 26.339844 21.632812 C 26.445312 21.601562 26.550781 21.554688 26.652344 21.503906 C 26.953125 21.34375 27.324219 21.402344 27.566406 21.644531 L 28.863281 22.941406 L 29.972656 21.835938 L 28.671875 20.535156 C 28.429688 20.296875 28.375 19.925781 28.53125 19.621094 C 28.585938 19.519531 28.628906 19.414062 28.664062 19.304688 C 28.765625 18.972656 29.070312 18.75 29.414062 18.75 L 31.25 18.75 L 31.25 17.1875 L 29.414062 17.1875 C 29.070312 17.1875 28.765625 16.960938 28.667969 16.632812 C 28.632812 16.523438 28.589844 16.417969 28.535156 16.316406 C 28.375 16.011719 28.433594 15.640625 28.675781 15.402344 L 29.972656 14.101562 L 28.867188 12.996094 L 27.566406 14.296875 C 27.328125 14.539062 26.957031 14.59375 26.652344 14.4375 C 26.554688 14.382812 26.449219 14.339844 26.339844 14.304688 C 26.007812 14.207031 25.78125 13.902344 25.78125 13.554688 L 25.78125 11.71875 L 24.21875 11.71875 L 24.21875 13.554688 C 24.21875 13.898438 23.992188 14.203125 23.660156 14.304688 C 23.554688 14.335938 23.449219 14.382812 23.347656 14.433594 C 23.046875 14.59375 22.675781 14.535156 22.433594 14.292969 L 21.132812 12.996094 L 20.027344 14.101562 L 21.328125 15.402344 C 21.570312 15.640625 21.625 16.011719 21.46875 16.316406 C 21.414062 16.417969 21.371094 16.523438 21.335938 16.632812 C 21.234375 16.960938 20.933594 17.1875 20.589844 17.1875 L 18.75 17.1875 L 18.75 18.75 L 20.585938 18.75 C 20.929688 18.75 21.234375 18.976562 21.332031 19.304688 C 21.367188 19.414062 21.410156 19.519531 21.464844 19.621094 C 21.625 19.925781 21.566406 20.296875 21.324219 20.535156 L 20.027344 21.835938 L 21.132812 22.941406 L 22.433594 21.640625 C 22.671875 21.398438 23.042969 21.34375 23.347656 21.5 C 23.445312 21.554688 23.550781 21.597656 23.660156 21.632812 C 23.992188 21.730469 24.21875 22.035156 24.21875 22.382812 Z M 24.21875 24.21875 "/>
<path style=" stroke:none;fill-rule:nonzero;fill:url(#linear2);" d="M 25 21.09375 C 23.273438 21.09375 21.875 19.695312 21.875 17.96875 C 21.875 16.242188 23.273438 14.84375 25 14.84375 C 26.726562 14.84375 28.125 16.242188 28.125 17.96875 C 28.125 19.695312 26.726562 21.09375 25 21.09375 Z M 25 16.40625 C 24.136719 16.40625 23.4375 17.105469 23.4375 17.96875 C 23.4375 18.832031 24.136719 19.53125 25 19.53125 C 25.863281 19.53125 26.5625 18.832031 26.5625 17.96875 C 26.5625 17.105469 25.863281 16.40625 25 16.40625 Z M 25 16.40625 "/>
<path style=" stroke:none;fill-rule:nonzero;fill:url(#linear3);" d="M 39.0625 11.71875 L 37.5 11.71875 C 37.070312 11.71875 36.71875 11.367188 36.71875 10.9375 C 36.71875 10.507812 37.070312 10.15625 37.5 10.15625 L 39.0625 10.15625 C 39.492188 10.15625 39.84375 10.507812 39.84375 10.9375 C 39.84375 11.367188 39.492188 11.71875 39.0625 11.71875 Z M 39.0625 11.71875 "/>
<path style=" stroke:none;fill-rule:nonzero;fill:url(#linear4);" d="M 39.0625 14.0625 L 37.5 14.0625 C 37.070312 14.0625 36.71875 13.710938 36.71875 13.28125 C 36.71875 12.851562 37.070312 12.5 37.5 12.5 L 39.0625 12.5 C 39.492188 12.5 39.84375 12.851562 39.84375 13.28125 C 39.84375 13.710938 39.492188 14.0625 39.0625 14.0625 Z M 39.0625 14.0625 "/>
<path style=" stroke:none;fill-rule:nonzero;fill:url(#linear5);" d="M 41.40625 7.8125 L 35.15625 7.8125 C 34.726562 7.8125 34.375 8.164062 34.375 8.59375 L 34.375 15.625 C 34.375 16.054688 34.726562 16.40625 35.15625 16.40625 L 37.5 16.40625 L 37.5 18.75 L 35.15625 18.75 C 34.726562 18.75 34.375 19.101562 34.375 19.53125 C 34.375 19.960938 34.726562 20.3125 35.15625 20.3125 L 38.28125 20.3125 C 38.710938 20.3125 39.0625 19.960938 39.0625 19.53125 L 39.0625 16.40625 L 41.40625 16.40625 C 41.835938 16.40625 42.1875 16.054688 42.1875 15.625 L 42.1875 8.59375 C 42.1875 8.164062 41.835938 7.8125 41.40625 7.8125 Z M 40.625 14.84375 L 35.9375 14.84375 L 35.9375 9.375 L 40.625 9.375 Z M 40.625 14.84375 "/>
<path style=" stroke:none;fill-rule:nonzero;fill:url(#linear6);" d="M 12.5 25.78125 L 10.9375 25.78125 C 10.507812 25.78125 10.15625 25.429688 10.15625 25 C 10.15625 24.570312 10.507812 24.21875 10.9375 24.21875 L 12.5 24.21875 C 12.929688 24.21875 13.28125 24.570312 13.28125 25 C 13.28125 25.429688 12.929688 25.78125 12.5 25.78125 Z M 12.5 25.78125 "/>
<path style=" stroke:none;fill-rule:nonzero;fill:url(#linear7);" d="M 12.5 23.4375 L 10.9375 23.4375 C 10.507812 23.4375 10.15625 23.085938 10.15625 22.65625 C 10.15625 22.226562 10.507812 21.875 10.9375 21.875 L 12.5 21.875 C 12.929688 21.875 13.28125 22.226562 13.28125 22.65625 C 13.28125 23.085938 12.929688 23.4375 12.5 23.4375 Z M 12.5 23.4375 "/>
<path style=" stroke:none;fill-rule:nonzero;fill:url(#linear8);" d="M 14.84375 19.53125 L 12.5 19.53125 L 12.5 17.1875 L 14.84375 17.1875 C 15.273438 17.1875 15.625 16.835938 15.625 16.40625 C 15.625 15.976562 15.273438 15.625 14.84375 15.625 L 11.71875 15.625 C 11.289062 15.625 10.9375 15.976562 10.9375 16.40625 L 10.9375 19.53125 L 8.59375 19.53125 C 8.164062 19.53125 7.8125 19.882812 7.8125 20.3125 L 7.8125 27.34375 C 7.8125 27.773438 8.164062 28.125 8.59375 28.125 L 14.84375 28.125 C 15.273438 28.125 15.625 27.773438 15.625 27.34375 L 15.625 20.3125 C 15.625 19.882812 15.273438 19.53125 14.84375 19.53125 Z M 14.0625 26.5625 L 9.375 26.5625 L 9.375 21.09375 L 14.0625 21.09375 Z M 14.0625 26.5625 "/>
<path style=" stroke:none;fill-rule:nonzero;fill:url(#linear9);" d="M 35.9375 26.5625 L 33.59375 26.5625 C 33.386719 26.5625 33.1875 26.480469 33.042969 26.332031 L 31.480469 24.769531 C 31.183594 24.464844 31.1875 23.976562 31.488281 23.675781 C 31.789062 23.375 32.277344 23.371094 32.582031 23.667969 L 33.917969 25 L 35.9375 25 C 36.367188 25 36.71875 25.351562 36.71875 25.78125 C 36.71875 26.210938 36.367188 26.5625 35.9375 26.5625 Z M 35.9375 26.5625 "/>
<path style=" stroke:none;fill-rule:nonzero;fill:url(#linear10);" d="M 41.40625 25.78125 L 38.28125 25.78125 C 37.851562 25.78125 37.5 25.429688 37.5 25 C 37.5 24.570312 37.851562 24.21875 38.28125 24.21875 L 41.40625 24.21875 C 41.835938 24.21875 42.1875 24.570312 42.1875 25 C 42.1875 25.429688 41.835938 25.78125 41.40625 25.78125 Z M 41.40625 25.78125 "/>
<path style=" stroke:none;fill-rule:nonzero;fill:url(#linear11);" d="M 41.40625 28.125 L 38.28125 28.125 C 37.851562 28.125 37.5 27.773438 37.5 27.34375 C 37.5 26.914062 37.851562 26.5625 38.28125 26.5625 L 41.40625 26.5625 C 41.835938 26.5625 42.1875 26.914062 42.1875 27.34375 C 42.1875 27.773438 41.835938 28.125 41.40625 28.125 Z M 41.40625 28.125 "/>
<path style=" stroke:none;fill-rule:nonzero;fill:url(#linear12);" d="M 11.71875 9.375 L 8.59375 9.375 C 8.164062 9.375 7.8125 9.023438 7.8125 8.59375 C 7.8125 8.164062 8.164062 7.8125 8.59375 7.8125 L 11.71875 7.8125 C 12.148438 7.8125 12.5 8.164062 12.5 8.59375 C 12.5 9.023438 12.148438 9.375 11.71875 9.375 Z M 11.71875 9.375 "/>
<path style=" stroke:none;fill-rule:nonzero;fill:url(#linear13);" d="M 11.71875 11.71875 L 8.59375 11.71875 C 8.164062 11.71875 7.8125 11.367188 7.8125 10.9375 C 7.8125 10.507812 8.164062 10.15625 8.59375 10.15625 L 11.71875 10.15625 C 12.148438 10.15625 12.5 10.507812 12.5 10.9375 C 12.5 11.367188 12.148438 11.71875 11.71875 11.71875 Z M 11.71875 11.71875 "/>
<path style=" stroke:none;fill-rule:nonzero;fill:url(#linear14);" d="M 17.96875 11.71875 C 17.761719 11.71875 17.5625 11.636719 17.417969 11.488281 L 16.082031 10.15625 L 14.0625 10.15625 C 13.632812 10.15625 13.28125 9.804688 13.28125 9.375 C 13.28125 8.945312 13.632812 8.59375 14.0625 8.59375 L 16.40625 8.59375 C 16.613281 8.59375 16.8125 8.675781 16.957031 8.824219 L 18.519531 10.386719 C 18.746094 10.609375 18.8125 10.945312 18.691406 11.238281 C 18.570312 11.527344 18.285156 11.71875 17.96875 11.71875 Z M 17.96875 11.71875 "/>
<path style=" stroke:none;fill-rule:nonzero;fill:url(#linear15);" d="M 44.53125 1.5625 L 5.46875 1.5625 C 3.3125 1.566406 1.566406 3.3125 1.5625 5.46875 L 1.5625 32.03125 C 1.566406 34.1875 3.3125 35.933594 5.46875 35.9375 L 19.160156 35.9375 L 16.660156 42.1875 L 14.84375 42.1875 C 12.6875 42.191406 10.941406 43.9375 10.9375 46.09375 L 10.9375 47.65625 C 10.9375 48.085938 11.289062 48.4375 11.71875 48.4375 L 38.28125 48.4375 C 38.710938 48.4375 39.0625 48.085938 39.0625 47.65625 L 39.0625 46.09375 C 39.058594 43.9375 37.3125 42.191406 35.15625 42.1875 L 33.339844 42.1875 L 30.839844 35.9375 L 44.53125 35.9375 C 46.6875 35.933594 48.433594 34.1875 48.4375 32.03125 L 48.4375 5.46875 C 48.433594 3.3125 46.6875 1.566406 44.53125 1.5625 Z M 37.5 46.09375 L 37.5 46.875 L 12.5 46.875 L 12.5 46.09375 C 12.5 44.800781 13.550781 43.75 14.84375 43.75 L 35.15625 43.75 C 36.449219 43.75 37.5 44.800781 37.5 46.09375 Z M 31.660156 42.1875 L 18.339844 42.1875 L 20.839844 35.9375 L 29.160156 35.9375 Z M 46.875 32.03125 C 46.875 33.324219 45.824219 34.375 44.53125 34.375 L 5.46875 34.375 C 4.175781 34.375 3.125 33.324219 3.125 32.03125 L 3.125 5.46875 C 3.125 4.175781 4.175781 3.125 5.46875 3.125 L 44.53125 3.125 C 45.824219 3.125 46.875 4.175781 46.875 5.46875 Z M 46.875 32.03125 "/>
</g>
</svg>
